<svg width="24px" height="24px" viewBox="0 0 24 24" version="1.1" xmlns="http://www.w3.org/2000/svg" xmlns:xlink="http://www.w3.org/1999/xlink">
    <title>86BBDA15-9FE4-4B0E-8395-0A00B9536C98</title>
    <g id="🖌-Design" stroke="none" stroke-width="1" fill="none" fill-rule="evenodd">
        <g id="01---Main-Screen---Design" transform="translate(-1176.000000, -692.000000)">
            <g id="Values" transform="translate(108.000000, 664.000000)">
                <g id="Value" transform="translate(936.000000, -0.000000)">
                    <g id="Elements/Icons/Location" transform="translate(104.000000, 0.000000)">
                        <g transform="translate(28.000000, 28.000000)">
                            <g id="streamline-icon-space-rocket-earth@140x140" transform="translate(0.000000, 2.000000)" fill="#08A3F4" fill-rule="nonzero">
                                <path d="M14.6846479,11.6688732 C13.9806752,11.8952512 13.2092179,11.7087226 12.6864334,11.1857303 C12.1636489,10.662738 11.9774268,9.89120666 12.2040845,9.18732394 C13.0105634,6.6771831 13.5183099,6.17140845 13.7342254,5.95549296 L13.7608451,5.92887324 C13.819978,5.87218977 13.8466518,5.78957499 13.831831,5.70901408 C13.8171879,5.62835427 13.7636988,5.56010953 13.6888732,5.52661972 C11.1132801,4.39699127 8.13104121,4.72427881 5.86174381,6.38561257 C3.59244642,8.04694634 2.3794627,10.7909464 2.67816901,13.5874648 C2.68593219,13.6600371 2.66100124,13.7323007 2.61014085,13.7846479 C1.70501021,14.9396376 0.974224196,16.2211706 0.441126761,17.5883099 C-0.0162811263,18.4956898 0.0827896197,19.5843205 0.696478873,20.3942254 C1.06600648,20.7492309 1.56483269,20.9373596 2.07676056,20.9147887 C3.49525927,20.7507043 4.84797464,20.2255724 6.0056338,19.3895775 C6.08640807,19.3388617 6.18908488,19.3388617 6.26985915,19.3895775 C9.05175027,21.1663184 12.6457878,21.0228362 15.2771881,19.0299843 C17.9085885,17.0371324 19.0207076,13.616477 18.0643662,10.4571831 C18.0412108,10.3799369 17.9814562,10.3190757 17.9046479,10.294507 C17.8277889,10.2693542 17.7434889,10.2833428 17.6788732,10.3319718 C16.7497846,10.9183482 15.7414609,11.3685579 14.6846479,11.6688732 Z M9.58549296,12.208169 C9.85438157,11.957895 10.2662284,11.9429584 10.5525403,12.1730967 C10.8388522,12.4032351 10.9128093,12.8086623 10.7261972,13.1250704 C6.86042254,16.7798592 3.74295775,18.6225352 2.48394366,18.9202817 C2.40107025,18.9394937 2.3141478,18.9146117 2.25399341,18.8544573 C2.19383901,18.7943029 2.16895703,18.7073805 2.18816901,18.624507 C2.31066244,18.171782 2.48362486,17.7342499 2.70380282,17.3201408 C2.82802817,17.0726761 2.97788732,16.7985915 3.15732394,16.4939437 C3.20288998,16.4180444 3.28552924,16.3722669 3.37404089,16.3738947 C3.46255253,16.3755225 3.54345271,16.4243076 3.58619718,16.501831 L3.60690141,16.5392958 C3.63922598,16.5984194 3.69451729,16.6415823 3.75971831,16.6585915 C3.82453791,16.6764053 3.89384892,16.6664017 3.95098592,16.6309859 C5.9711953,15.3472387 7.85866133,13.8656687 9.58549296,12.208169 L9.58549296,12.208169 Z" id="Shape"/>
                                <path d="M17.3022801,8.04760563 C17.3034365,7.65569609 17.1475498,7.27965067 16.8694366,7.00352113 C16.2844692,6.4445187 15.3632772,6.4445187 14.7783099,7.00352113 C14.2640926,7.82127729 13.8712223,8.70930356 13.6119718,9.63985915 C13.5554315,9.81579765 13.6020432,10.0085815 13.7327167,10.1392551 C13.8633903,10.2699287 14.0561742,10.3165403 14.2321127,10.26 C15.1627249,10.0023421 16.0510706,9.6111379 16.8694366,9.09859155 C17.1486965,8.82040344 17.3046234,8.44177447 17.3022801,8.04760563 Z" id="Path"/>
                                <path d="M22.8450704,0.12084507 L21.3109859,0.77943662 C20.9588527,0.940517289 20.6359894,1.15909135 20.3556338,1.42619718 L19.1725352,2.60929577 C17.8638549,2.26616266 16.4704373,2.60904357 15.4704225,3.52028169 L15.1223944,3.87028169 C14.9299526,4.06278162 14.9299526,4.37482402 15.1223944,4.56732394 L19.3056338,8.74957746 C19.4981337,8.94201927 19.8101761,8.94201927 20.0026761,8.74957746 L20.3516901,8.4015493 C21.2663372,7.40257813 21.61128,6.00758329 21.2676056,4.69746479 L22.4507042,3.5143662 C22.7170279,3.23395946 22.9352211,2.91149989 23.0964789,2.56 L23.7540845,1.02591549 L23.7540845,1.02591549 C23.8992245,0.764418172 23.8594174,0.439194713 23.655493,0.220422535 C23.4360685,0.0138457335 23.1079776,-0.0264671397 22.8450704,0.12084507 Z" id="Path"/>
                            </g>
                        </g>
                    </g>
                </g>
            </g>
        </g>
    </g>
</svg>