<svg width="32" height="32" xmlns="http://www.w3.org/2000/svg" version="1.1">
 <title>01C663B7-393D-471E-9815-1EE03B8984EA</title>

 <g>
  <title>Layer 1</title>
  <g fill-rule="evenodd" fill="none" id="🖌-Design">
   <g id="01---Main-Screen---Design">
    <g id="Values">
     <g id="Elements/Icons/Location">
      <g fill-rule="nonzero" fill="#08A3F4" id="streamline-icon-educative-toys-alphabet@140x140">
       <path id="Shape" d="m12,15.33333l8,0c2.02443,-0.00147 3.6652,-1.64223 3.66667,-3.66666l0,-8c-0.00147,-2.02444 -1.64224,-3.6652 -3.66667,-3.66667l-8,0c-2.02443,0.00147 -3.6652,1.64223 -3.66667,3.66667l0,8c0.00147,2.02443 1.64224,3.66519 3.66667,3.66666zm1,-9.66666c0,-1.65686 1.34315,-3 3,-3c1.65685,0 3,1.34314 3,3l0,6c0,0.55228 -0.44772,1 -1,1c-0.55228,0 -1,-0.44772 -1,-1l0,-2.33334c0,-0.36819 -0.29848,-0.66666 -0.66667,-0.66666l-0.66666,0c-0.36819,0 -0.66667,0.29847 -0.66667,0.66666l0,2.33334c0,0.55228 -0.44772,1 -1,1c-0.55228,0 -1,-0.44772 -1,-1l0,-6z"/>
       <path id="Path" d="m15.66667,6.66667l0.66666,0c0.36819,0 0.66667,-0.29848 0.66667,-0.66667l0,-0.33333c0,-0.55229 -0.44772,-1 -1,-1c-0.55228,0 -1,0.44771 -1,1l0,0.33333c0,0.36819 0.29848,0.66667 0.66667,0.66667z"/>
       <path id="Shape" d="m11.66667,16.66667l-8,0c-2.02444,0.00147 -3.6652,1.64223 -3.66667,3.66666l0,8c0.00147,2.02444 1.64223,3.6652 3.66667,3.66667l8,0c2.02443,-0.00147 3.66519,-1.64223 3.66666,-3.66667l0,-8c-0.00147,-2.02443 -1.64223,-3.66519 -3.66666,-3.66666zm-1.48667,8.032c0.60114,0.92176 0.64883,2.09881 0.12424,3.06618c-0.5246,0.96737 -1.53711,1.56948 -2.63757,1.56848l-2,0c-0.55229,0 -1,-0.44771 -1,-1l0,-8c0,-0.55228 0.44771,-1 1,-1l2,0c1.10046,-0.001 2.11297,0.60111 2.63757,1.56849c0.52459,0.96737 0.4769,2.14442 -0.12424,3.06618c-0.14535,0.22187 -0.14535,0.5088 0,0.73067z"/>
       <path id="Path" d="m7.66667,25.33333l-0.33334,0c-0.36819,0 -0.66666,0.29848 -0.66666,0.66667l0,0.66667c0,0.36819 0.29847,0.66666 0.66666,0.66666l0.33334,0c0.55228,0 1,-0.44771 1,-1c0,-0.55228 -0.44772,-1 -1,-1z"/>
       <path id="Path" d="m7.66667,21.33333l-0.33334,0c-0.36819,0 -0.66666,0.29848 -0.66666,0.66667l0,0.66667c0,0.36819 0.29847,0.66666 0.66666,0.66666l0.33334,0c0.55228,0 1,-0.44771 1,-1c0,-0.55228 -0.44772,-1 -1,-1z"/>
       <path id="Shape" d="m28.33333,16.66667l-8,0c-2.02443,0.00147 -3.66519,1.64223 -3.66666,3.66666l0,8c0.00147,2.02444 1.64223,3.6652 3.66666,3.66667l8,0c2.02444,-0.00147 3.6652,-1.64223 3.66667,-3.66667l0,-8c-0.00147,-2.02443 -1.64223,-3.66519 -3.66667,-3.66666zm-2.66666,10.66666c0.55228,0 1,0.44772 1,1c0,0.55229 -0.44772,1 -1,1c-2.76143,0 -5,-2.23857 -5,-5c0,-2.76142 2.23857,-5 5,-5c0.55228,0 1,0.44772 1,1c0,0.55229 -0.44772,1 -1,1c-1.65686,0 -3,1.34315 -3,3c0,1.65686 1.34314,3 3,3l0,0z"/>
      </g>
     </g>
    </g>
   </g>
  </g>
 </g>
</svg>