<svg width="32px" height="32px" viewBox="0 0 32 32" version="1.1" xmlns="http://www.w3.org/2000/svg" xmlns:xlink="http://www.w3.org/1999/xlink">
    <title>695228CB-E8D9-45CA-ABAE-87BE66547749</title>
    <g id="🖌-Design" stroke="none" stroke-width="1" fill="#08A3F4" fill-rule="evenodd">
        <g id="01---Main-Screen---Design" transform="translate(-860.000000, -688.000000)">
            <g id="Values" transform="translate(108.000000, 664.000000)">
                <g id="Value" transform="translate(624.000000, -0.000000)">
                    <g id="Elements/Icons/Location" transform="translate(104.000000, 0.000000)">
                        <g transform="translate(24.000000, 24.000000)">
                            <g id="streamline-icon-real-estate-favorite-house-choose@140x140" transform="translate(2.666667, 2.666667)" fill="#08A3F4" fill-rule="nonzero">
                                <path d="M13.4444444,17.6811111 C13.5351691,17.7386901 13.6500556,17.7422751 13.7441936,17.6904644 C13.8383317,17.6386538 13.8967708,17.5396759 13.8966667,17.4322222 L13.8966667,11.6544444 C13.8966667,9.81349528 15.3890508,8.32111111 17.23,8.32111111 C17.4189684,8.32026441 17.5895057,8.20761269 17.6644388,8.03413414 C17.7393719,7.86065558 17.7044811,7.65927035 17.5755556,7.52111111 C15.2733333,5.07666667 11.7977778,1.38555556 10.8188889,0.34 C10.6038232,0.12477756 10.3120374,0.00385366613 10.0077778,0.00385366613 C9.70351811,0.00385366613 9.41173235,0.12477756 9.19666667,0.34 C8.41888889,1.16777778 0.307777778,9.78444444 0.307777778,9.78444444 C0.00871303007,10.1068664 -0.0720487396,10.5753361 0.10179345,10.9792847 C0.275635639,11.3832334 0.671366136,11.6466412 1.11111111,11.6511111 L2.77777778,11.6511111 C3.08460264,11.6511111 3.33333333,11.8998418 3.33333333,12.2066667 L3.33333333,16.6511111 C3.33333333,17.2647608 3.83079472,17.7622222 4.44444444,17.7622222 L9.63111111,17.7622222 C9.7343701,17.7622222 9.8355632,17.733284 9.92333333,17.6788889 C10.9976742,16.9950826 12.3709676,16.9959493 13.4444444,17.6811111 Z" id="Path"/>
                                <path d="M10.3988889,21.6 L10.3722222,21.5644444 C9.82997668,20.8504517 9.94972256,19.8354268 10.6432334,19.2672204 C11.3367443,18.6990141 12.3554946,18.7812477 12.9488889,19.4533333 L14.5733333,21.4066667 C14.723343,21.5865555 14.9700627,21.6530352 15.1901452,21.5728693 C15.4102278,21.4927035 15.5563889,21.2831157 15.5555556,21.0488889 L15.5555556,11.6666667 C15.5555556,10.7461921 16.3017476,10 17.2222222,10 C18.1426968,10 18.8888889,10.7461921 18.8888889,11.6666667 L18.8888889,18.3333333 C18.8888889,18.6401582 19.1376196,18.8888889 19.4444444,18.8888889 L22.2222222,18.8888889 C24.6768211,18.8888889 26.6666667,20.8787344 26.6666667,23.3333333 L26.6666667,26.1111111 C26.6666667,26.417936 26.417936,26.6666669 26.1111111,26.6666669 L14.1811111,26.6666669 C13.9983287,26.6668442 13.8271537,26.577102 13.7233333,26.4266667 L10.3988889,21.6 Z" id="Path"/>
                            </g>
                        </g>
                    </g>
                </g>
            </g>
        </g>
    </g>
</svg>