<svg width="32" height="32" xmlns="http://www.w3.org/2000/svg" version="1.1">
 <title>AD5ED166-31C7-4DFF-AEAC-42C1E24CA6FC</title>

 <g>
  <title>Layer 1</title>
  <g fill-rule="evenodd" fill="none" id="🖌-Design">
   <g id="01---Main-Screen---Design">
    <g id="Values">
     <g id="Value">
      <g id="Elements/Icons/Location">
       <g id="svg_1">
        <g fill-rule="nonzero" fill="#08A3F4" id="streamline-icon-saving-piggy-bank@140x140">
         <path id="Shape" d="m29.14421,11.77431c0.02284,-0.29172 -0.07115,-0.58056 -0.26129,-0.80298c-0.19014,-0.22241 -0.46086,-0.36018 -0.75258,-0.38299c-0.60774,-0.04457 -1.13877,0.40687 -1.19259,1.01387c-0.00499,0.07663 -0.0648,0.13835 -0.14124,0.14575c-0.07644,0.0074 -0.14697,-0.04171 -0.16656,-0.11596c-0.53441,-1.85017 -1.64373,-3.48226 -3.16738,-4.66005c-2.79233,-2.1491 -6.37176,-2.99857 -9.83199,-2.33333c-0.10371,0.01729 -0.20831,-0.0254 -0.27029,-0.11033c-1.07335,-1.42436 -2.89978,-2.06076 -4.62585,-1.61182c-0.38766,0.10111 -0.69004,0.40442 -0.78996,0.79239c-0.09991,0.38797 0.01835,0.79961 0.30895,1.07538c0.40676,0.38192 0.71036,0.86047 0.88259,1.39118c0.03768,0.11736 -0.00742,0.24546 -0.11033,0.31332c-1.95138,1.25543 -3.35592,3.20224 -3.93191,5.44996c-0.02924,0.12435 -0.14034,0.21213 -0.26809,0.21182l-0.50417,0c-0.91395,0 -1.65485,0.7409 -1.65485,1.65484l0,2.20646c0,0.91395 0.7409,1.65485 1.65485,1.65485l1.36911,0c0.10037,0.00014 0.19281,0.05459 0.2416,0.14232c0.82731,1.44829 2.00859,2.66297 3.43326,3.53034c0.10404,0.06548 0.15218,0.19191 0.11804,0.31l-0.96974,3.35603c-0.21164,0.73173 0.20954,1.49656 0.94106,1.70891c0.12523,0.03571 0.2548,0.05406 0.38503,0.05406c0.61278,-0.00037 1.15194,-0.40474 1.32387,-0.99291l0.84618,-2.92246c0.04316,-0.14582 0.19584,-0.22955 0.342,-0.18755c2.31986,0.69018 4.79008,0.69286 7.11143,0.00772c0.07019,-0.02023 0.14553,-0.0119 0.20961,0.02317c0.06474,0.03494 0.11251,0.09466 0.13239,0.16548l0.84397,2.91364c0.17194,0.58817 0.7111,0.99254 1.32388,0.99291c0.13022,0 0.25978,-0.01843 0.38503,-0.05406c0.73152,-0.21235 1.1527,-0.97718 0.94105,-1.70891l-0.97084,-3.35272c-0.03375,-0.11808 0.01431,-0.24428 0.11805,-0.31c2.3792,-1.4009 4.00301,-3.79672 4.42285,-6.52561c0.0132,-0.09997 0.08011,-0.18467 0.17431,-0.22065c1.18795,-0.45408 2.00648,-1.55377 2.10055,-2.82207zm-7.61229,-1.88542c-0.13167,0.17556 -0.32768,0.29162 -0.54492,0.32266c-0.21725,0.03103 -0.43792,-0.0255 -0.61347,-0.15717c-1.42632,-1.06705 -3.18713,-1.58903 -4.96454,-1.47171c-0.45698,0.03046 -0.85212,-0.31529 -0.88259,-0.77226c-0.03046,-0.45698 0.31529,-0.85212 0.77226,-0.88259c2.17303,-0.14977 4.32725,0.48866 6.06777,1.79827c0.17684,0.13174 0.29378,0.32863 0.32485,0.54695c0.03107,0.21832 -0.0263,0.44 -0.15936,0.61585l0,0zm-12.24586,3.36486c-0.6093,0 -1.10324,-0.49394 -1.10324,-1.10323c0,-0.6093 0.49394,-1.10323 1.10324,-1.10323c0.60929,0 1.10323,0.49393 1.10323,1.10323c0,0.60929 -0.49394,1.10323 -1.10323,1.10323z"/>
        </g>
       </g>
      </g>
     </g>
    </g>
   </g>
  </g>
 </g>
</svg>